<svg width="27" height="27" viewBox="0 0 27 27" fill="none" xmlns="http://www.w3.org/2000/svg">
<path d="M10.9688 12.9375C11.1925 12.9375 11.4071 13.0264 11.5654 13.1847C11.7236 13.3429 11.8125 13.5575 11.8125 13.7813V18.2813C11.8125 18.5051 11.7236 18.7197 11.5654 18.8779C11.4071 19.0361 11.1925 19.125 10.9688 19.125C10.745 19.125 10.5304 19.0361 10.3721 18.8779C10.2139 18.7197 10.125 18.5051 10.125 18.2813V13.7813C10.125 13.5575 10.2139 13.3429 10.3721 13.1847C10.5304 13.0264 10.745 12.9375 10.9688 12.9375ZM16.875 13.7813C16.875 13.5575 16.7861 13.3429 16.6279 13.1847C16.4696 13.0264 16.255 12.9375 16.0312 12.9375C15.8075 12.9375 15.5929 13.0264 15.4346 13.1847C15.2764 13.3429 15.1875 13.5575 15.1875 13.7813V18.2813C15.1875 18.5051 15.2764 18.7197 15.4346 18.8779C15.5929 19.0361 15.8075 19.125 16.0312 19.125C16.255 19.125 16.4696 19.0361 16.6279 18.8779C16.7861 18.7197 16.875 18.5051 16.875 18.2813V13.7813Z" fill="black"/>
<path d="M12.0152 2.40298C12.1983 2.53136 12.323 2.72717 12.3618 2.9474C12.4006 3.16762 12.3504 3.39425 12.2222 3.57748L9.41087 7.59373H17.5896L14.7771 3.57748C14.6488 3.39399 14.5987 3.16704 14.6377 2.94657C14.6767 2.72609 14.8017 2.53016 14.9852 2.40186C15.1687 2.27356 15.3957 2.22341 15.6162 2.26244C15.8366 2.30147 16.0326 2.42649 16.1609 2.60998L19.6484 7.59373H22.219C22.8903 7.59373 23.5342 7.86042 24.0089 8.33512C24.4836 8.80982 24.7502 9.45365 24.7502 10.125V11.0081C24.7503 11.385 24.6662 11.7571 24.504 12.0973C24.3419 12.4375 24.1059 12.7373 23.8131 12.9746L22.5047 14.0355L21.6014 21.132C21.5236 21.743 21.2257 22.3048 20.7635 22.712C20.3012 23.1191 19.7064 23.3437 19.0904 23.3437H7.91012C7.29413 23.3437 6.69927 23.1191 6.23703 22.712C5.77478 22.3048 5.47687 21.743 5.39912 21.132L4.49462 14.0355L3.18737 12.9746C2.89462 12.7373 2.65857 12.4375 2.49644 12.0973C2.33431 11.7571 2.2502 11.385 2.25024 11.0081V10.125C2.25024 9.45365 2.51693 8.80982 2.99163 8.33512C3.46633 7.86042 4.11016 7.59373 4.78149 7.59373H7.35099L10.8407 2.60998C10.9691 2.42688 11.1649 2.30224 11.3852 2.26342C11.6054 2.22461 11.832 2.2748 12.0152 2.40298ZM22.219 9.28123H4.78149C4.55772 9.28123 4.34311 9.37013 4.18487 9.52836C4.02664 9.6866 3.93774 9.90121 3.93774 10.125V11.0081C3.93774 11.2624 4.05249 11.5031 4.25049 11.664L5.82099 12.9375C5.98947 13.0744 6.09867 13.2711 6.12587 13.4865L7.07312 20.9194C7.09912 21.123 7.19846 21.3101 7.35253 21.4458C7.50661 21.5814 7.70485 21.6562 7.91012 21.6562H19.0904C19.2956 21.6562 19.4939 21.5814 19.648 21.4458C19.802 21.3101 19.9014 21.123 19.9274 20.9194L20.8735 13.4865C20.901 13.2709 21.0106 13.0742 21.1795 12.9375L22.75 11.664C22.8477 11.5849 22.9265 11.4849 22.9806 11.3714C23.0347 11.258 23.0628 11.1338 23.0627 11.0081V10.125C23.0627 9.90121 22.9739 9.6866 22.8156 9.52836C22.6574 9.37013 22.4428 9.28123 22.219 9.28123Z" fill="black"/>
</svg>
