<svg width="1892" height="180" viewBox="0 0 1892 180" fill="none" xmlns="http://www.w3.org/2000/svg">
<path d="M120.536 179.58C97.5443 179.58 76.8289 175.808 58.39 168.264C40.1787 160.556 25.8373 149.896 15.3658 136.284C5.12193 122.672 0 107.256 0 90.0358C0 72.6519 5.23575 57.1539 15.7072 43.5419C26.1787 29.9299 40.7478 19.27 59.4144 11.562C78.3086 3.85399 99.593 0 123.268 0C143.3 0 161.284 2.78799 177.219 8.36398C193.381 13.776 206.584 21.484 216.828 31.4879C227.3 41.4919 234.243 53.1359 237.657 66.4199H205.901C201.349 52.1519 191.674 40.9179 176.877 32.7179C162.081 24.354 144.097 20.172 122.926 20.172C104.943 20.172 89.0077 23.124 75.1216 29.0279C61.2355 34.9319 50.4225 43.2139 42.6827 53.8739C34.9429 64.3699 31.073 76.4239 31.073 90.0358C31.073 103.648 34.9429 115.784 42.6827 126.444C50.6502 137.104 61.6908 145.468 75.8045 151.536C89.9183 157.44 105.853 160.392 123.609 160.392C139.089 160.392 153.203 158.096 165.95 153.504C178.698 148.748 189.056 142.27 197.023 134.07C205.219 125.706 210.227 116.194 212.048 105.534V104.058H126.682V85.3618H239.365V175.89H212.731V143.172C203.853 154.652 191.446 163.59 175.511 169.986C159.576 176.382 141.251 179.58 120.536 179.58Z" fill="white"/>
<path d="M391.286 3.68999H537.09V23.37H421.676V79.9498H504.651V99.6298H421.676V156.21H550.407V175.89H391.286V3.68999Z" fill="white"/>
<path d="M769.308 3.68999C797.308 3.68999 819.389 8.36398 835.552 17.712C851.714 27.0599 859.796 39.8519 859.796 56.0879C859.796 68.7159 854.787 79.2938 844.771 87.8218C834.755 96.3498 820.755 102.254 802.771 105.534L879.259 175.89H842.039L768.625 108.486C767.942 108.65 766.804 108.732 765.211 108.732H719.796V175.89H689.065V3.68999H769.308ZM769.991 90.0358C788.43 90.0358 802.885 87.0018 813.357 80.9338C823.828 74.8659 829.064 66.6659 829.064 56.3339C829.064 46.0019 823.828 37.8839 813.357 31.9799C802.885 25.9119 788.43 22.878 769.991 22.878H719.796V90.0358H769.991Z" fill="white"/>
<path d="M1085.6 3.68999C1110.87 3.68999 1133.18 7.29798 1152.53 14.514C1172.1 21.73 1187.24 31.8979 1197.94 45.0179C1208.87 57.9739 1214.33 72.8979 1214.33 89.7898C1214.33 106.682 1208.87 121.688 1197.94 134.808C1187.24 147.764 1172.1 157.85 1152.53 165.066C1133.18 172.282 1110.87 175.89 1085.6 175.89H1012.19V3.68999H1085.6ZM1085.6 155.226C1105.18 155.226 1122.25 152.52 1136.82 147.108C1151.62 141.696 1163 134.07 1170.97 124.23C1178.93 114.226 1182.92 102.746 1182.92 89.7898C1182.92 76.8339 1178.93 65.4359 1170.97 55.5959C1163 45.5919 1151.62 37.8839 1136.82 32.4719C1122.25 27.0599 1105.18 24.3539 1085.6 24.3539H1042.92V155.226H1085.6Z" fill="white"/>
<path d="M1417.11 3.68999H1458.09L1555.4 175.89H1521.94L1496.33 129.396H1378.19L1352.58 175.89H1320.14L1417.11 3.68999ZM1486.43 111.438L1437.26 22.878H1436.92L1387.75 111.438H1486.43Z" fill="white"/>
<path d="M1686.44 3.68999H1719.22L1863.32 143.91V3.68999H1892V175.89H1859.56L1716.15 35.4239V175.89H1686.44V3.68999Z" fill="white"/>
</svg>
