<svg width="29" height="29" viewBox="0 0 29 29" fill="none" xmlns="http://www.w3.org/2000/svg">
<path d="M25.375 24.4688L18.5781 17.6719M4.53125 11.7812C4.53125 12.8523 4.74222 13.9129 5.15211 14.9025C5.562 15.8921 6.16278 16.7912 6.92016 17.5486C7.67754 18.306 8.57668 18.9068 9.56624 19.3166C10.5558 19.7265 11.6164 19.9375 12.6875 19.9375C13.7586 19.9375 14.8192 19.7265 15.8088 19.3166C16.7983 18.9068 17.6975 18.306 18.4548 17.5486C19.2122 16.7912 19.813 15.8921 20.2229 14.9025C20.6328 13.9129 20.8438 12.8523 20.8438 11.7812C20.8437 9.61808 19.9844 7.5435 18.4548 6.01391C16.9252 4.48432 14.8507 3.625 12.6875 3.625C10.5243 3.625 8.44975 4.48432 6.92016 6.01391C5.39057 7.5435 4.53125 9.61808 4.53125 11.7812Z" stroke="black" stroke-width="1.8125" stroke-linecap="round" stroke-linejoin="round"/>
</svg>
